# xmcd
# Track frame offsets:
# 150
# 13907
# 24392
# 37230
# 54300
# 65437
# 78347
# 94140
# 114010
# 130685
# 142427
# 158207
# 176507
# 189707
#
# Disc length: 2736 seconds
# Revision: 0
# Processed by: cddbd v1.4PL0 Copyright (c) Steve Scherf et al.
# Submitted via: VisiTrax 2.9.5.180 - For more info visit www.synapsa.com
#
DISCID=bd0aae0e
DTITLE=Ernie Ashworth - Ernie Ashworth Grand Ole Opry 35th Anniversary Collec
DTITLE=tion
DYEAR=1999
DGENRE=
TTITLE0=She don't drink, she don't smoke, but she lies
TTITLE1=They're fooling you
TTITLE2=Talk back trembling lipsd
TTITLE3=Lightning strikes twice
TTITLE4=Jesus juice
TTITLE5=I see a bridge
TTITLE6=The far side banks of Jordan
TTITLE7=Every time the cross crosses my mind
TTITLE8=Forgive me God
TTITLE9=Sunday christian
TTITLE10=places, Empty (daddy version)
TTITLE11=Christmas party
TTITLE12=What Christmas meant to me
TTITLE13=Empty places (mama version)
EXTD=
EXTT0=
EXTT1=
EXTT2=
EXTT3=
EXTT4=
EXTT5=
EXTT6=
EXTT7=
EXTT8=
EXTT9=
EXTT10=
EXTT11=
EXTT12=
EXTT13=
PLAYORDER=
